<svg width="106" height="28" viewBox="0 0 106 28" fill="none" xmlns="http://www.w3.org/2000/svg">
<path d="M102.775 21.7481C100.625 23.8421 98.0084 24.8891 94.9254 24.8891C91.8424 24.8891 89.2258 23.8421 87.0758 21.7481C84.9258 19.6541 83.8508 17.0714 83.8508 14.0002C83.8508 10.929 84.9258 8.34637 87.0758 6.25235C89.2258 4.15834 91.8424 3.11133 94.9254 3.11133C98.0084 3.11133 100.625 4.15834 102.775 6.25235C104.925 8.34637 106 10.929 106 14.0002C106 17.0714 104.925 19.6541 102.775 21.7481ZM90.4834 18.4874C91.6801 19.6441 93.1608 20.2224 94.9254 20.2224C96.69 20.2224 98.1606 19.6441 99.337 18.4874C100.534 17.3307 101.132 15.835 101.132 14.0002C101.132 12.1655 100.534 10.6697 99.337 9.51304C98.1606 8.35634 96.69 7.778 94.9254 7.778C93.1608 7.778 91.6801 8.35634 90.4834 9.51304C89.307 10.6697 88.7187 12.1655 88.7187 14.0002C88.7187 15.835 89.307 17.3307 90.4834 18.4874Z" fill="white"/>
<path d="M80.6204 3.5H85.222L78.7852 24.5H75.334L71.0748 13.1L67.5688 24.5H62.9672L69.4039 3.5H72.8551L77.0048 14.9L80.6204 3.5Z" fill="white"/>
<path d="M57.1269 3.5H61.7285L55.189 24.5H50.5873L57.1269 3.5Z" fill="white"/>
<path d="M63.2575 3.5H67.8591L61.3195 24.5H56.7179L63.2575 3.5Z" fill="white"/>
<path d="M46.1241 24.5C44.3743 24.5 42.8275 23.3626 42.3059 21.6922L36.6254 3.5H41.6584L46.1162 18.95L50.574 3.5H55.607L49.0497 24.5H46.1241Z" fill="white"/>
<path d="M12.4819 13.61C14.1308 14.71 14.9552 16.29 14.9552 18.35C14.9552 20.17 14.3321 21.65 13.0858 22.79C11.8396 23.93 10.2961 24.5 8.45546 24.5H8C3.58172 24.5 0 20.9183 0 16.5V3.5H7.88026C9.68256 3.5 11.1877 4.06 12.3956 5.18C13.6227 6.28 14.2362 7.72 14.2362 9.5C14.2362 11.18 13.6515 12.55 12.4819 13.61ZM7.88026 8H4.60161V11.72H7.88026C8.39794 11.72 8.81976 11.55 9.14571 11.21C9.47165 10.85 9.63463 10.4 9.63463 9.86C9.63463 9.32 9.47165 8.88 9.14571 8.54C8.81976 8.18 8.39794 8 7.88026 8ZM8.45546 20C9.03066 20 9.49083 19.82 9.83595 19.46C10.1811 19.08 10.3536 18.59 10.3536 17.99C10.3536 17.39 10.1811 16.91 9.83595 16.55C9.49083 16.17 9.03066 15.98 8.45546 15.98H4.60161V17C4.60161 18.6569 5.94476 20 7.60161 20H8.45546Z" fill="white"/>
<path fill-rule="evenodd" clip-rule="evenodd" d="M30.8944 5.74174C30.6477 4.97288 29.8006 4.58657 29.0687 4.9092L21.2727 8.34584C20.7289 8.58556 20.4029 9.15619 20.4685 9.75316L21.4716 20.071C21.5389 20.6821 22 21.1729 22.5993 21.2712L34.2727 23.1862C35.2714 23.3501 36.0875 22.3858 35.7749 21.4113L30.8944 5.74174ZM27.1799 0.514379L19.384 3.95102C16.9369 5.02976 15.4695 7.5976 15.765 10.2839L16.7681 20.6018C17.0707 23.3516 19.1457 25.5602 21.8425 26.0026L33.5159 27.9177C38.0101 28.6549 41.6826 24.3157 40.2759 19.9303L35.3954 4.2608C34.2856 0.800916 30.4735 -0.937493 27.1799 0.514379Z" fill="white"/>
</svg>
