<svg width="134" height="36" viewBox="0 0 134 36" fill="none" xmlns="http://www.w3.org/2000/svg">
<path d="M129.923 27.9615C127.205 30.6538 123.897 32 120 32C116.103 32 112.795 30.6538 110.077 27.9615C107.359 25.2692 106 21.9487 106 18C106 14.0513 107.359 10.7308 110.077 8.03846C112.795 5.34615 116.103 4 120 4C123.897 4 127.205 5.34615 129.923 8.03846C132.641 10.7308 134 14.0513 134 18C134 21.9487 132.641 25.2692 129.923 27.9615ZM114.385 23.7692C115.897 25.2564 117.769 26 120 26C122.231 26 124.09 25.2564 125.577 23.7692C127.09 22.2821 127.846 20.359 127.846 18C127.846 15.641 127.09 13.7179 125.577 12.2308C124.09 10.7436 122.231 10 120 10C117.769 10 115.897 10.7436 114.385 12.2308C112.897 13.7179 112.154 15.641 112.154 18C112.154 20.359 112.897 22.2821 114.385 23.7692Z" fill="#1D3108"/>
<path d="M101.916 4.5H107.733L99.5964 31.5H95.2336L89.8492 16.8429L85.4171 31.5H79.6L87.7371 4.5H92.0999L97.3457 19.1571L101.916 4.5Z" fill="#1D3108"/>
<path d="M72.217 4.5H78.0342L69.7671 31.5H63.95L72.217 4.5Z" fill="#1D3108"/>
<path d="M79.967 4.5H85.7842L77.5171 31.5H71.7L79.967 4.5Z" fill="#1D3108"/>
<path d="M57.5456 31.5C55.7887 31.5 54.2374 30.3535 53.7218 28.674L46.3 4.5H52.6625L58.2978 24.3643L63.9332 4.5H70.2957L62.0062 31.5H57.5456Z" fill="#1D3108"/>
<path d="M15.779 17.4986C17.8634 18.9129 18.9057 20.9443 18.9057 23.5929C18.9057 25.9329 18.1179 27.8357 16.5425 29.3014C14.967 30.7671 13.0158 31.5 10.689 31.5H8C3.58172 31.5 0 27.9183 0 23.5V4.5H9.96184C12.2402 4.5 14.1429 5.22 15.6699 6.66C17.2211 8.07429 17.9968 9.92571 17.9968 12.2143C17.9968 14.3743 17.2575 16.1357 15.779 17.4986ZM9.96184 10.2857H5.81713V15.0686H9.96184C10.6163 15.0686 11.1495 14.85 11.5616 14.4129C11.9736 13.95 12.1796 13.3714 12.1796 12.6771C12.1796 11.9829 11.9736 11.4171 11.5616 10.98C11.1495 10.5171 10.6163 10.2857 9.96184 10.2857ZM10.689 25.7143C11.4161 25.7143 11.9978 25.4829 12.4341 25.02C12.8704 24.5314 13.0885 23.9014 13.0885 23.13C13.0885 22.3586 12.8704 21.7414 12.4341 21.2786C11.9978 20.79 11.4161 20.5457 10.689 20.5457H5.81713V22.7143C5.81713 24.3711 7.16028 25.7143 8.81713 25.7143H10.689Z" fill="#1D3108"/>
<path fill-rule="evenodd" clip-rule="evenodd" d="M39.0552 7.38224C38.7434 6.3937 37.6725 5.89701 36.7473 6.31183L26.892 10.7304C26.2045 11.0386 25.7923 11.7722 25.8753 12.5398L27.1434 25.8056C27.2284 26.5913 27.8113 27.2223 28.5689 27.3487L43.3259 29.8109C44.5884 30.0215 45.6201 28.7817 45.2249 27.5288L39.0552 7.38224ZM34.3596 0.661345L24.5043 5.07988C21.4108 6.46683 19.5558 9.76835 19.9294 13.2222L21.1975 26.488C21.5799 30.0235 24.2031 32.8631 27.6123 33.4319L42.3692 35.8941C48.0505 36.8421 52.6932 31.263 50.9149 25.6247L44.7452 5.47817C43.3422 1.02975 38.5231 -1.20535 34.3596 0.661345Z" fill="#1D3108"/>
</svg>
