<svg width="20" height="28" viewBox="0 0 20 28" fill="none" xmlns="http://www.w3.org/2000/svg">
<path d="M16.6923 13.48C18.8974 14.9467 20 17.0533 20 19.8C20 22.2267 19.1667 24.2 17.5 25.72C15.8333 27.24 13.7692 28 11.3077 28H10C4.47715 28 0 23.5228 0 18V0H10.5385C12.9487 0 14.9615 0.746666 16.5769 2.24C18.2179 3.70667 19.0385 5.62667 19.0385 8C19.0385 10.24 18.2564 12.0667 16.6923 13.48ZM10.5385 6H6.15385V10.96H10.5385C11.2308 10.96 11.7949 10.7333 12.2308 10.28C12.6667 9.8 12.8846 9.2 12.8846 8.48C12.8846 7.76 12.6667 7.17333 12.2308 6.72C11.7949 6.24 11.2308 6 10.5385 6ZM11.3077 22C12.0769 22 12.6923 21.76 13.1538 21.28C13.6154 20.7733 13.8462 20.12 13.8462 19.32C13.8462 18.52 13.6154 17.88 13.1538 17.4C12.6923 16.8933 12.0769 16.64 11.3077 16.64H6.15385V18C6.15385 20.2091 7.94471 22 10.1538 22H11.3077Z" fill="#A7E075"/>
</svg>
